<svg xmlns="http://www.w3.org/2000/svg" viewBox="0 0 114 115" enable-background="new 0 0 114 115"><style type="text/css">.st0{fill:#B01657;} .st1{fill:#FFFFFF;}</style><circle class="st0" cx="57.7" cy="56.8" r="51.8"/><path class="st1" d="M84.6 68.1c-1.6 2.8-4.2 3.3-7.1 3.2-4.1-.2-7-3.6-6.7-7.9h23c-.1-2.1-.1-4-.3-6-.5-4.2-2.3-7.7-5.7-10.1-3.3-2.3-7-3-11.1-2.7-5.8.3-10.3 3-12.8 8.5-1.5 3.6-1.8 7.3-1.4 11.2.3 2.9 1.1 5.6 2.9 8 5.5 6.8 18.1 7.7 24.3 1.6 1.7-1.7 3.2-3.6 3.6-6.2h-7.9c-.4-.1-.7.2-.8.4zm-6.6-16.9c4.1.1 7.1 3 6.8 6.6h-14c.1-3.8 3.2-6.7 7.2-6.6zm-24.7 2.8c1.1-.8 2.1-1.5 3-2.4 3.5-4.1 2.6-11.5-1.7-14.8-2.4-1.9-5.2-2.6-8.2-2.6l-20.9-.1-.7.1v42.7h1.4c5.4 0 10.8.1 16.2 0 2.3 0 4.4-.2 6.6-.4 5.5-.7 9.7-4.6 10.6-10.2.7-4.4-.3-9.8-6.3-12.3zm-20.1-12.5h4.5c2.8.1 5.5 0 8.1.3 3.2.3 4 1.6 4 4.5 0 2.7-1.3 4.3-4.2 4.5-4.1.2-8.3.1-12.5.1v-9.4zm13 27.8c-2.9.2-5.8.1-8.8.2h-4.2v-11.3c.3-.1.5-.1.7-.1 3.6 0 7.2 0 10.8.1.6 0 1.2.1 1.7.2 3.1.5 4.4 2.3 4.4 5.5-.1 3-1.7 5.2-4.6 5.4zm21.9-32.6v4.1h18.5v-4.1h-18.5z"/></svg>